<svg width="48" height="48" viewBox="0 0 48 48" fill="none" xmlns="http://www.w3.org/2000/svg">
<path d="M44 15.3333C44 9.256 38.949 4.31067 32.6111 4.028V4H14.3889V4.028C8.05097 4.31067 3 9.256 3 15.3333C3 17.8147 3.85075 20.1013 5.27778 21.968V38.6667C5.27778 41.612 7.31753 44 9.83333 44H37.1667C39.6825 44 41.7222 41.612 41.7222 38.6667V21.968C43.1492 20.1013 44 17.8147 44 15.3333Z" fill="#D99E82"/>
<path d="M29 22H41.7V24H29V22Z" fill="#CC927A"/>
<path d="M31 15.3333C31 9.256 27.5506 4.31067 23.2222 4.028V4H10.7778V4.028C6.44944 4.31067 3 9.256 3 15.3333C3 17.8147 3.581 20.1013 4.55556 21.968V38.6667C4.55556 41.612 5.94856 44 7.66667 44H26.3333C28.0514 44 29.4444 41.612 29.4444 38.6667V21.968C30.419 20.1013 31 17.8147 31 15.3333Z" fill="#CC927A"/>
<path d="M28.2 16.6333C28.2 11.4676 25.3665 7.26407 21.8111 7.0238V7H11.5889V7.0238C8.03347 7.26407 5.2 11.4676 5.2 16.6333C5.2 18.7425 5.67725 20.6861 6.47778 22.2728V36.4667C6.47778 38.9702 7.62203 41 9.03333 41H24.3667C25.778 41 26.9222 38.9702 26.9222 36.4667V22.2728C27.7228 20.6861 28.2 18.7425 28.2 16.6333Z" fill="#FFE8B6"/>
</svg>
